# xmcd
#
# Track frame offsets: 
#        150
#        20916
#        32127
#        48151
#        59570
#        72887
#        84679
#        100443
#        117474
#        127760
#        140566
#        161243
#        175638
#        189975
#        203875
#        220382
#        237512
#        254691
#
# Disc length: 3569 seconds
#
# Revision: 1
# Processed by: cddbd v1.5.2PL0 Copyright (c) Steve Scherf et al.
# Submitted via: ExactAudioCopyFreeDBPlugin 1.0
#
DISCID=140def12
DTITLE=Various Artist - Trucker Party
DYEAR=1900
DGENRE=Blues
TTITLE0=Gunter Gabriel - Er ist ein Kerl
TTITLE1=Western Railroad - Dieselqualm
TTITLE2=Tennessee Ernest G. - Solange bis die Räder glüh'n
TTITLE3=Wilk and Friends - Highway Family
TTITLE4=Mary Mc Allan - Keine Zeit zum Küssen
TTITLE5=Sammy and Andre - Hallo, guten Morgen Deutschland
TTITLE6=Medium Terzett - Es hängt ein Trabireifen an der Wand
TTITLE7=Tennessee Ernest G. - Auch ein Trucker hat ein Herz
TTITLE8=Peter Beil - Hello, Mary-Lou
TTITLE9=Roland W. - Denver Colorado
TTITLE10=Tony Cajee's Country Five - Viel zu gut gelebt
TTITLE11=Dave Dudley and Folkert Klaassen - Im Stau
TTITLE12=Mary Mc Allan - Truckdriver Daddy
TTITLE13=Tony Cajee’S Country Five - Der Sheriff hat heute Geburtstag
TTITLE14=Ladies-Country-Express - Adios, alter Truck
TTITLE15=Andre Lamberz and Hill's Angels - So ein ehrbares Mädchen
TTITLE16=André Lamberz and Hill’S Angels - 18 Räder und ein Dutzend Rose
TTITLE16=n
TTITLE17=Sammy and Andre - Ich fahre nie mehr blau
EXTD=
EXTT0=
EXTT1=
EXTT2=
EXTT3=
EXTT4=
EXTT5=
EXTT6=
EXTT7=
EXTT8=
EXTT9=
EXTT10=
EXTT11=
EXTT12=
EXTT13=
EXTT14=
EXTT15=
EXTT16=
EXTT17=
PLAYORDER=
